<svg width="32" height="32" viewBox="0 0 32 32" fill="none" xmlns="http://www.w3.org/2000/svg">
<path d="M2.74265 26.4987L5.3398 6.26751C5.57714 4.41864 6.04605 4 7.94161 4C9.83717 4 10.3061 4.41864 10.5434 6.26751L13.3333 28H4.07984C3.3669 28 3.01045 28 2.8092 27.774C2.60794 27.5481 2.65285 27.1983 2.74265 26.4987Z" stroke="#1570EF" stroke-width="2" stroke-linecap="round" stroke-linejoin="round"/>
<path d="M13.5383 28.0002H28C28.6285 28.0002 28.9428 28.0002 29.1381 27.805C29.3333 27.6096 29.3333 27.2954 29.3333 26.6668V9.3335L23.5203 14.1778C22.5741 14.9662 22.1011 15.3603 21.7172 15.1806C21.3333 15.0007 21.3333 14.385 21.3333 13.1534V9.3335L15.4027 13.6467C14.7072 14.1526 14.3595 14.4054 13.9575 14.5362C13.5555 14.6668 13.1256 14.6668 12.2657 14.6668H12" stroke="#1570EF" stroke-width="2" stroke-linecap="round" stroke-linejoin="round"/>
<path d="M5.33337 8H10.6667" stroke="#1570EF" stroke-width="2" stroke-linecap="round" stroke-linejoin="round"/>
<path d="M16 20H18.6667" stroke="#1570EF" stroke-width="2" stroke-linecap="round" stroke-linejoin="round"/>
<path d="M22.6666 20H25.3333" stroke="#1570EF" stroke-width="2" stroke-linecap="round" stroke-linejoin="round"/>
</svg>
