<svg width="32" height="32" viewBox="0 0 32 32" fill="none" xmlns="http://www.w3.org/2000/svg">
<path d="M13.023 25.1315L16 18.6667L18.9771 25.1315C19.8405 27.0066 20.2723 27.9441 19.8149 28.6209C19.8024 28.6394 19.7895 28.6577 19.7761 28.6757C19.2879 29.3334 18.1919 29.3334 16 29.3334C13.8081 29.3334 12.7121 29.3334 12.2239 28.6757C12.2106 28.6577 12.1976 28.6394 12.1851 28.6209C11.7278 27.9441 12.1595 27.0066 13.023 25.1315Z" stroke="#1570EF" stroke-width="2" stroke-linecap="round" stroke-linejoin="round"/>
<path d="M16 18.6666C17.4728 18.6666 18.6667 17.4727 18.6667 15.9999C18.6667 14.5272 17.4728 13.3333 16 13.3333C14.5272 13.3333 13.3333 14.5272 13.3333 15.9999C13.3333 17.4727 14.5272 18.6666 16 18.6666Z" stroke="#1570EF" stroke-width="2" stroke-linecap="round"/>
<path d="M5.33334 24.0014C3.65891 21.7727 2.66667 19.0022 2.66667 16.0001C2.66667 8.63628 8.6362 2.66675 16 2.66675C23.3637 2.66675 29.3333 8.63628 29.3333 16.0001C29.3333 19.0022 28.3411 21.7727 26.6667 24.0014" stroke="#1570EF" stroke-width="2" stroke-linecap="round"/>
<path d="M10.0371 21.3333C8.77028 19.918 8 18.0489 8 16C8 11.5817 11.5817 8 16 8C20.4183 8 24 11.5817 24 16C24 18.0489 23.2297 19.918 21.9629 21.3333" stroke="#1570EF" stroke-width="2" stroke-linecap="round"/>
</svg>
