<svg width="42" height="32" viewBox="0 0 42 32" fill="none" xmlns="http://www.w3.org/2000/svg">
<g clip-path="url(#clip0_303_982)">
<rect width="42" height="32" rx="8" fill="white"/>
<path fill-rule="evenodd" clip-rule="evenodd" d="M-0.333328 0V32H42.3333V0H-0.333328Z" fill="#C51918"/>
<mask id="mask0_303_982" style="mask-type:luminance" maskUnits="userSpaceOnUse" x="-1" y="0" width="44" height="32">
<path fill-rule="evenodd" clip-rule="evenodd" d="M-0.333328 0V32H42.3333V0H-0.333328Z" fill="white"/>
</mask>
<g mask="url(#mask0_303_982)">
<path d="M21.4915 8.01807C21.7746 8.036 22.054 8.06826 22.3284 8.11475L23.4465 5.61865L23.3157 8.34619C23.5856 8.42824 23.8497 8.52443 24.1067 8.6333L25.7756 6.45947L25.012 9.08936C25.2534 9.2302 25.4878 9.38191 25.7122 9.54639L27.8459 7.81006L26.4895 10.1978C26.691 10.3891 26.8823 10.591 27.0627 10.8022L29.5471 9.59814L27.6702 11.6128C27.8214 11.844 27.9605 12.0836 28.0872 12.3306L30.7854 11.7271L28.4905 13.2583C28.5833 13.5169 28.6621 13.782 28.7278 14.0522L31.4963 14.0815L28.9026 15.0483C28.9322 15.3193 28.9491 15.5941 28.9504 15.8726L31.6409 16.5356L28.8889 16.8843C28.8549 17.1592 28.8061 17.4293 28.7444 17.6948L31.2102 18.9565L28.4534 18.6665C28.3564 18.9254 28.245 19.1771 28.1223 19.4224L30.2288 21.2134L27.6116 20.2993C27.4575 20.528 27.292 20.7484 27.1155 20.9595L28.7493 23.1851L26.4124 21.6958C26.2101 21.8829 25.9987 22.0604 25.7776 22.2261L26.8508 24.7651L24.925 22.7827C24.6851 22.9187 24.4375 23.0427 24.1829 23.1538L24.636 25.8687L23.2239 23.5015C22.9595 23.5784 22.6893 23.6412 22.4143 23.6909L22.2249 26.4351L21.4016 23.8101C21.2607 23.8174 21.1186 23.8228 20.9758 23.8228C20.8394 23.8227 20.7033 23.8187 20.5686 23.812L19.7463 26.4351L19.5549 23.6948C19.2793 23.6456 19.0084 23.5828 18.7434 23.5063L17.3352 25.8687L17.7854 23.1616C17.529 23.0505 17.2798 22.9258 17.0383 22.7896L15.1204 24.7651L16.1868 22.2378C15.9633 22.0711 15.7495 21.8922 15.5452 21.7036L13.2219 23.1851L14.845 20.9722C14.666 20.7591 14.498 20.5363 14.342 20.3052L11.7415 21.2134L13.8342 19.4341C13.7096 19.1859 13.5966 18.9306 13.4983 18.6685L10.76 18.9565L13.2073 17.7036C13.1444 17.4345 13.0961 17.1602 13.0618 16.8813L10.3303 16.5356L12.9993 15.8774C13.0005 15.5951 13.0178 15.3162 13.0481 15.0415L10.4739 14.0815L13.2229 14.0522C13.2894 13.7786 13.3688 13.5102 13.4631 13.2485L11.1848 11.7271L13.8655 12.3267C13.9939 12.0766 14.1348 11.8339 14.2883 11.6001L12.4241 9.59814L14.8928 10.7954C15.0754 10.5821 15.2698 10.379 15.4739 10.186L14.1243 7.81006L16.2483 9.53955C16.4748 9.37394 16.7114 9.22112 16.9553 9.07959L16.1956 6.45947L17.8586 8.62646C18.1167 8.5177 18.3824 8.42304 18.6536 8.34131L18.5237 5.61865L19.6399 8.11182C19.9146 8.06586 20.1943 8.03345 20.4778 8.01611L20.9856 5.3335L21.4915 8.01807ZM20.928 9.88916C17.5879 9.88933 14.8802 12.5752 14.8801 15.8882C14.8803 19.201 17.588 21.8861 20.928 21.8862C24.2679 21.8861 26.9756 19.201 26.9758 15.8882C26.9758 12.5752 24.2681 9.88931 20.928 9.88916ZM20.6682 15.9155C21.5438 17.0462 22.1479 18.6126 22.4954 20.2944C22.0174 20.464 21.5031 20.5581 20.967 20.5581C20.2902 20.5581 19.6485 20.4091 19.0706 20.145C19.0903 18.5689 19.6217 17.1617 20.6682 15.9155ZM21.5686 15.4399C22.7784 16.8315 23.5384 18.0257 23.4856 19.8003C23.4012 19.8561 23.315 19.9092 23.2268 19.9595C22.8678 18.1908 22.1886 16.7963 21.2424 15.6812L21.4739 15.5073C21.5045 15.4843 21.5369 15.4629 21.5686 15.4399ZM20.1907 15.4575C19.0756 16.726 18.4684 18.1568 18.3645 19.7437C18.2266 19.6479 18.0943 19.545 17.968 19.4351C18.3882 17.7582 19.0857 16.3754 20.0872 15.3735C20.1233 15.4018 20.1579 15.4296 20.1907 15.4575ZM22.2415 15.144C23.7368 15.8612 24.5771 17.5742 24.6301 18.7212C24.4999 18.8953 24.3576 19.0597 24.2043 19.2134C24.1194 17.6392 23.4486 16.4388 22.2415 15.144ZM19.5354 15.1372C18.5355 16.1076 17.7888 17.2123 17.3323 18.7583C17.2965 18.7115 17.2617 18.6639 17.2278 18.6157C17.3073 17.4572 18.0456 15.8148 19.5354 15.1372ZM25.1633 14.1694C25.4046 14.7261 25.5392 15.3396 25.5393 15.9849C25.5393 16.6453 25.3977 17.2723 25.1458 17.8394C24.8301 16.7104 24.1086 15.5658 22.5159 14.8696C23.2338 14.5177 24.1191 14.2438 25.1633 14.1694ZM16.7561 14.1997C17.8046 14.3177 18.6321 14.5726 19.2522 14.8677C17.6725 15.5391 17.0505 16.62 16.7375 17.7231C16.5171 17.1872 16.3948 16.6002 16.3948 15.9849C16.3948 15.3516 16.5233 14.7481 16.7561 14.1997ZM20.967 11.4126C22.2438 11.4126 23.3983 11.9367 24.2278 12.7808C22.9221 12.9321 21.8142 13.2569 20.9153 13.7661C20.114 13.3064 19.0307 12.9977 17.6682 12.8208C18.5003 11.9534 19.6703 11.4127 20.967 11.4126Z" fill="#FFDC17"/>
</g>
</g>
<defs>
<clipPath id="clip0_303_982">
<rect width="42" height="32" rx="8" fill="white"/>
</clipPath>
</defs>
</svg>
