<svg width="32" height="32" viewBox="0 0 32 32" fill="none" xmlns="http://www.w3.org/2000/svg">
<path d="M27.1446 17.8091C25.5586 19.3948 22.5744 19.3332 17.999 19.3332C15.0552 19.3332 12.6685 16.943 12.667 13.9992C12.667 9.42684 12.6054 6.44103 14.1914 4.85534C15.7772 3.26966 16.4778 3.33386 23.5032 3.33386C24.1822 3.33095 24.5239 4.15202 24.0439 4.63208L20.4266 8.24968C19.5084 9.16792 19.5059 10.6566 20.4242 11.5747C21.3424 12.4929 22.8312 12.493 23.7496 11.575L27.3679 7.95823C27.848 7.47828 28.6692 7.81994 28.6663 8.49876C28.6663 15.5231 28.7306 16.2235 27.1446 17.8091Z" stroke="#1570EF" stroke-width="2"/>
<path d="M18 19.3333L9.7712 27.5621C8.29846 29.0348 5.91064 29.0348 4.43788 27.5621C2.96512 26.0893 2.96512 23.7015 4.43788 22.2288L12.6666 14" stroke="#1570EF" stroke-width="2" stroke-linecap="round"/>
<path d="M7.34526 24.6665H7.33331" stroke="#1570EF" stroke-width="2" stroke-linecap="round" stroke-linejoin="round"/>
</svg>
