<svg width="32" height="32" viewBox="0 0 32 32" fill="none" xmlns="http://www.w3.org/2000/svg">
<path d="M4 15.9861V19.3333C4 23.733 4 25.9329 5.36684 27.2998C6.73367 28.6666 8.93356 28.6666 13.3333 28.6666H18.6667C23.0664 28.6666 25.2663 28.6666 26.6332 27.2998C28 25.9329 28 23.733 28 19.3333V15.9861C28 13.7443 28 12.6236 27.5255 11.6533C27.0509 10.6831 26.1663 9.99496 24.3968 8.61873L21.7301 6.54465C18.9775 4.40372 17.6012 3.33325 16 3.33325C14.3988 3.33325 13.0225 4.40372 10.2699 6.54465L7.60321 8.61873C5.83377 9.99496 4.94905 10.6831 4.47453 11.6533C4 12.6236 4 13.7443 4 15.9861Z" stroke="#1570EF" stroke-width="2" stroke-linecap="round" stroke-linejoin="round"/>
<path d="M20 28.6667V22C20 20.1144 20 19.1716 19.4143 18.5857C18.8284 18 17.8856 18 16 18C14.1144 18 13.1716 18 12.5858 18.5857C12 19.1716 12 20.1144 12 22V28.6667" stroke="#1570EF" stroke-width="2" stroke-linecap="round" stroke-linejoin="round"/>
</svg>
