<svg width="32" height="32" viewBox="0 0 32 32" fill="none" xmlns="http://www.w3.org/2000/svg">
<path d="M2.66669 29.3335H28.6667" stroke="#1570EF" stroke-width="2" stroke-linecap="round" stroke-linejoin="round"/>
<path d="M4 17.3335V29.3335M28 17.3335V29.3335" stroke="#1570EF" stroke-width="2" stroke-linecap="round" stroke-linejoin="round"/>
<path d="M10 10.6665V29.3332M22 10.6665V29.3332" stroke="#1570EF" stroke-width="2" stroke-linecap="round" stroke-linejoin="round"/>
<path d="M2.66669 17.3335H9.33335M29.3334 17.3335H22.6667" stroke="#1570EF" stroke-width="2" stroke-linecap="round" stroke-linejoin="round"/>
<path d="M8.66669 10.6665H23.3334" stroke="#1570EF" stroke-width="2" stroke-linecap="round" stroke-linejoin="round"/>
<path d="M16 10.6665V6.64279M16 6.64279V3.96031C16 3.32804 16 3.01191 16.1952 2.81548C16.8081 2.19903 19.3333 3.65722 20.2937 4.24855C21.1047 4.74791 21.3333 5.74536 21.3333 6.64279H16Z" stroke="#1570EF" stroke-width="2" stroke-linecap="round" stroke-linejoin="round"/>
<path d="M16 29.3332V26.6665" stroke="#1570EF" stroke-width="2" stroke-linecap="round" stroke-linejoin="round"/>
<path d="M14 16V16.6667M18 16V16.6667" stroke="#1570EF" stroke-width="2" stroke-linecap="round" stroke-linejoin="round"/>
<path d="M14 21.3335V22.0002M18 21.3335V22.0002" stroke="#1570EF" stroke-width="2" stroke-linecap="round" stroke-linejoin="round"/>
</svg>
