<svg width="40" height="40" viewBox="0 0 40 40" fill="none" xmlns="http://www.w3.org/2000/svg">
<rect width="40" height="40" rx="14" fill="#F2F4F7"/>
<path d="M21.3766 27C21.2432 27 21.1299 26.9533 21.0366 26.86C20.9432 26.7667 20.8966 26.6533 20.8966 26.52V23.96H14.5566C14.4099 23.96 14.2899 23.9133 14.1966 23.82C14.1166 23.7267 14.0766 23.6133 14.0766 23.48V22.12C14.0766 22.04 14.0899 21.9467 14.1166 21.84C14.1566 21.72 14.2166 21.6133 14.2966 21.52L20.1966 13.34C20.3699 13.1133 20.6166 13 20.9366 13H23.1166C23.2499 13 23.3632 13.0467 23.4566 13.14C23.5499 13.2333 23.5966 13.3467 23.5966 13.48V21.6H25.3766C25.5366 21.6 25.6566 21.6467 25.7366 21.74C25.8299 21.82 25.8766 21.9333 25.8766 22.08V23.48C25.8766 23.6133 25.8299 23.7267 25.7366 23.82C25.6432 23.9133 25.5299 23.96 25.3966 23.96H23.5966V26.52C23.5966 26.6533 23.5499 26.7667 23.4566 26.86C23.3632 26.9533 23.2499 27 23.1166 27H21.3766ZM16.8566 21.68H20.9566V15.9L16.8566 21.68Z" fill="#101828" fill-opacity="0.7"/>
</svg>
