<svg width="50" height="50" viewBox="0 0 50 50" fill="none" xmlns="http://www.w3.org/2000/svg">
<rect x="5" y="5" width="40" height="40" rx="14" fill="#1570EF" fill-opacity="0.1"/>
<path d="M20.1886 32C20.0553 32 19.9419 31.9533 19.8486 31.86C19.7553 31.7667 19.7086 31.6533 19.7086 31.52V30.5C19.7086 30.38 19.7353 30.24 19.7886 30.08C19.8553 29.9067 19.9953 29.7333 20.2086 29.56L23.3686 26.42C24.2486 25.7267 24.9553 25.14 25.4886 24.66C26.0353 24.1667 26.4286 23.72 26.6686 23.32C26.9219 22.9067 27.0486 22.5 27.0486 22.1C27.0486 21.5 26.8819 21.0133 26.5486 20.64C26.2286 20.2667 25.7153 20.08 25.0086 20.08C24.5419 20.08 24.1486 20.18 23.8286 20.38C23.5086 20.5667 23.2553 20.82 23.0686 21.14C22.8953 21.46 22.7753 21.8133 22.7086 22.2C22.6819 22.3733 22.6086 22.4933 22.4886 22.56C22.3686 22.6267 22.2486 22.66 22.1286 22.66H20.3486C20.2286 22.66 20.1286 22.62 20.0486 22.54C19.9686 22.46 19.9286 22.3667 19.9286 22.26C19.9419 21.6867 20.0619 21.1333 20.2886 20.6C20.5153 20.0533 20.8419 19.5733 21.2686 19.16C21.7086 18.7333 22.2419 18.3933 22.8686 18.14C23.4953 17.8867 24.2019 17.76 24.9886 17.76C26.0953 17.76 27.0086 17.9467 27.7286 18.32C28.4619 18.6933 29.0086 19.2 29.3686 19.84C29.7419 20.48 29.9286 21.2 29.9286 22C29.9286 22.6267 29.8086 23.2067 29.5686 23.74C29.3286 24.26 28.9819 24.7667 28.5286 25.26C28.0753 25.74 27.5286 26.2333 26.8886 26.74L24.0486 29.62H29.7486C29.8953 29.62 30.0086 29.6667 30.0886 29.76C30.1819 29.84 30.2286 29.9533 30.2286 30.1V31.52C30.2286 31.6533 30.1819 31.7667 30.0886 31.86C30.0086 31.9533 29.8953 32 29.7486 32H20.1886Z" fill="#1570EF"/>
<rect x="1" y="1" width="48" height="48" rx="17" stroke="#1570EF" stroke-width="2" stroke-dasharray="17 17"/>
</svg>
