<svg width="40" height="40" viewBox="0 0 40 40" fill="none" xmlns="http://www.w3.org/2000/svg">
<rect width="40" height="40" rx="14" fill="#F2F4F7"/>
<path d="M19.9188 27.22C18.7722 27.22 17.8055 27.0333 17.0188 26.66C16.2322 26.2733 15.6322 25.7733 15.2188 25.16C14.8188 24.5467 14.6055 23.8933 14.5788 23.2C14.5655 23.08 14.5988 22.9867 14.6788 22.92C14.7722 22.84 14.8788 22.8 14.9988 22.8H16.8588C17.0055 22.8 17.1255 22.8333 17.2188 22.9C17.3255 22.9533 17.4055 23.0533 17.4588 23.2C17.5922 23.6 17.7788 23.9267 18.0188 24.18C18.2722 24.4333 18.5588 24.62 18.8788 24.74C19.2122 24.86 19.5588 24.92 19.9188 24.92C20.3988 24.92 20.8322 24.8267 21.2188 24.64C21.6188 24.44 21.9388 24.1467 22.1788 23.76C22.4188 23.3733 22.5388 22.9 22.5388 22.34C22.5388 21.8467 22.4255 21.42 22.1988 21.06C21.9722 20.7 21.6588 20.42 21.2588 20.22C20.8722 20.0067 20.4255 19.9 19.9188 19.9C19.5455 19.9 19.2388 19.9467 18.9988 20.04C18.7588 20.1333 18.5522 20.24 18.3788 20.36C18.2188 20.48 18.0722 20.5867 17.9388 20.68C17.8188 20.7733 17.6788 20.82 17.5188 20.82H15.6788C15.5588 20.82 15.4522 20.78 15.3588 20.7C15.2788 20.6067 15.2388 20.5 15.2388 20.38L15.9388 13.54C15.9522 13.3667 16.0122 13.2333 16.1188 13.14C16.2255 13.0467 16.3522 13 16.4988 13H24.0188C24.1522 13 24.2655 13.0467 24.3588 13.14C24.4522 13.2333 24.4988 13.3467 24.4988 13.48V14.82C24.4988 14.9533 24.4522 15.0667 24.3588 15.16C24.2655 15.2533 24.1522 15.3 24.0188 15.3H18.2388L17.9188 18.56C18.1588 18.4 18.4788 18.2467 18.8788 18.1C19.2788 17.9533 19.8322 17.88 20.5388 17.88C21.1788 17.88 21.7855 17.9867 22.3588 18.2C22.9455 18.4 23.4655 18.7 23.9188 19.1C24.3722 19.4867 24.7255 19.96 24.9788 20.52C25.2455 21.0667 25.3788 21.6933 25.3788 22.4C25.3788 23.3733 25.1522 24.22 24.6988 24.94C24.2455 25.66 23.6122 26.22 22.7988 26.62C21.9855 27.02 21.0255 27.22 19.9188 27.22Z" fill="#101828" fill-opacity="0.7"/>
</svg>
