<svg width="40" height="40" viewBox="0 0 40 40" fill="none" xmlns="http://www.w3.org/2000/svg">
<rect width="40" height="40" rx="14" fill="#F2F4F7"/>
<path d="M19.9212 27.2C18.9878 27.2 18.1812 27.0867 17.5012 26.86C16.8212 26.6333 16.2545 26.34 15.8012 25.98C15.3612 25.6067 15.0278 25.2067 14.8012 24.78C14.5745 24.34 14.4545 23.9067 14.4412 23.48C14.4412 23.36 14.4812 23.2667 14.5612 23.2C14.6545 23.12 14.7612 23.08 14.8812 23.08H16.6812C16.8145 23.08 16.9278 23.1067 17.0212 23.16C17.1145 23.2133 17.1945 23.32 17.2612 23.48C17.3812 23.84 17.5745 24.1267 17.8412 24.34C18.1212 24.5533 18.4412 24.7067 18.8012 24.8C19.1612 24.88 19.5412 24.92 19.9412 24.92C20.7412 24.92 21.3745 24.7333 21.8412 24.36C22.3212 23.9733 22.5612 23.4267 22.5612 22.72C22.5612 22.0133 22.3412 21.5067 21.9012 21.2C21.4612 20.88 20.8478 20.72 20.0612 20.72H18.0012C17.8545 20.72 17.7345 20.68 17.6412 20.6C17.5478 20.5067 17.5012 20.3867 17.5012 20.24V19.4C17.5012 19.2667 17.5278 19.1533 17.5812 19.06C17.6478 18.9533 17.7145 18.8667 17.7812 18.8L21.3612 15.3H15.6412C15.4945 15.3 15.3745 15.2533 15.2812 15.16C15.2012 15.0667 15.1612 14.9533 15.1612 14.82V13.5C15.1612 13.3533 15.2012 13.2333 15.2812 13.14C15.3745 13.0467 15.4945 13 15.6412 13H24.2212C24.3678 13 24.4878 13.0467 24.5812 13.14C24.6745 13.2333 24.7212 13.3533 24.7212 13.5V14.7C24.7212 14.82 24.6945 14.9267 24.6412 15.02C24.5878 15.1133 24.5278 15.1933 24.4612 15.26L21.0012 18.82L21.2412 18.84C22.0545 18.9067 22.7745 19.0933 23.4012 19.4C24.0412 19.6933 24.5345 20.1267 24.8812 20.7C25.2412 21.2733 25.4212 21.9933 25.4212 22.86C25.4212 23.7667 25.1812 24.5467 24.7012 25.2C24.2345 25.84 23.5878 26.3333 22.7612 26.68C21.9345 27.0267 20.9878 27.2 19.9212 27.2Z" fill="#101828" fill-opacity="0.7"/>
</svg>
