<svg width="24" height="24" viewBox="0 0 24 24" fill="none" xmlns="http://www.w3.org/2000/svg">
<path d="M21.5088 8.5848H20.892L20.9244 6.3168C20.9209 6.18417 20.8698 6.05722 20.7804 5.9592L15.4812 0.1608C15.4383 0.112536 15.3861 0.0734188 15.3278 0.0457894C15.2694 0.01816 15.2061 0.00258619 15.1416 0L4.05357 0C3.80496 0.00399127 3.5676 0.104281 3.39145 0.279759C3.2153 0.455236 3.11411 0.692212 3.10917 0.9408V8.5848H2.49117C2.14917 8.5848 1.81917 8.7264 1.57917 8.9784C1.33429 9.23452 1.19835 9.57566 1.19997 9.93V16.926C1.19997 17.6676 1.77837 18.27 2.49117 18.27H3.10917V23.058C3.11382 23.3072 3.21521 23.5448 3.3919 23.7206C3.5686 23.8964 3.80674 23.9966 4.05597 24H19.9896C20.4876 24 20.9256 23.5776 20.9256 23.0592V18.2712H21.51C22.2228 18.2712 22.8012 17.6676 22.8012 16.9248V9.9288C22.8012 9.5736 22.6656 9.2304 22.4232 8.9784C22.3058 8.85442 22.1644 8.7556 22.0076 8.68794C21.8508 8.62028 21.6819 8.58519 21.5112 8.5848M4.73997 1.6536H13.0872V7.146C13.0867 7.26967 13.134 7.38874 13.2192 7.4784C13.2605 7.52184 13.3102 7.55647 13.3652 7.58019C13.4203 7.6039 13.4796 7.61622 13.5396 7.6164H19.2504V8.5848H4.73997V1.6536ZM4.73997 22.3464V18.27H19.2504V22.3464H4.73997ZM14.7492 1.824L15.2112 2.3448L18.3072 5.7684L18.4788 5.976H15.3144C15.0744 5.976 14.9232 5.936 14.8608 5.856C14.7968 5.7776 14.7596 5.6524 14.7492 5.4804V1.824ZM3.59997 17.0784V9.8784H5.90157C6.77357 9.8784 7.34157 9.9144 7.60557 9.9864C8.01357 10.0944 8.35477 10.3296 8.62917 10.692C8.90357 11.0528 9.04077 11.52 9.04077 12.0936C9.04077 12.5352 8.96157 12.9072 8.80317 13.2096C8.64477 13.5096 8.44357 13.7456 8.19957 13.9176C7.97723 14.0807 7.72413 14.1971 7.45557 14.2596C7.11317 14.3284 6.61757 14.3628 5.96877 14.3628H5.03397V17.0784H3.59997ZM5.03397 11.0964V13.14H5.81877C6.38437 13.14 6.76237 13.1024 6.95277 13.0272C7.13677 12.957 7.29434 12.8312 7.40358 12.6673C7.51283 12.5035 7.56833 12.3097 7.56237 12.1128C7.57124 11.8757 7.48975 11.6441 7.33437 11.4648C7.18472 11.2954 6.98133 11.1827 6.75837 11.1456C6.58797 11.1136 6.24397 11.0976 5.72637 11.0976L5.03397 11.0964ZM9.88197 9.8784H12.5028C13.094 9.8784 13.5448 9.9244 13.8552 10.0164C14.2712 10.1404 14.628 10.3612 14.9256 10.6788C15.2224 10.9972 15.4484 11.386 15.6036 11.8452C15.7596 12.306 15.8372 12.8732 15.8364 13.5468C15.8364 14.1396 15.7636 14.6504 15.618 15.0792C15.4396 15.6032 15.186 16.0272 14.8572 16.3512C14.6092 16.5976 14.2732 16.7896 13.8492 16.9272C13.5332 17.028 13.1104 17.0784 12.5808 17.0784H9.88197V9.8784ZM11.316 11.0964V15.8652H12.3864C12.7872 15.8652 13.0764 15.8424 13.254 15.7968C13.4868 15.7376 13.6796 15.6376 13.8324 15.4968C13.9868 15.356 14.112 15.1244 14.208 14.802C14.3048 14.4796 14.3532 14.04 14.3532 13.4832C14.3532 12.9264 14.3052 12.4992 14.2092 12.2016C14.1319 11.9395 13.9918 11.7002 13.8012 11.5044C13.616 11.3314 13.3861 11.2138 13.1376 11.1648C12.9376 11.1192 12.5456 11.0964 11.9616 11.0964H11.316ZM16.7316 17.0784V9.8784H21.6V11.0964H18.1656V12.8004H21.1296V14.0184H18.1656V17.0784H16.7316Z" fill="#D92D20"/>
</svg>
