<svg width="32" height="32" viewBox="0 0 32 32" fill="none" xmlns="http://www.w3.org/2000/svg">
<path d="M10.8387 14.8418L16.1707 8.25435C16.5877 7.73916 17.3693 8.05981 17.3693 8.74609V13.8449C17.3693 14.2559 17.6759 14.5893 18.054 14.5893H20.6473C21.2366 14.5893 21.5505 15.3445 21.1613 15.8253L15.8293 22.4127C15.4123 22.9279 14.6307 22.6073 14.6307 21.921V16.8223C14.6307 16.4111 14.3241 16.0779 13.946 16.0779H11.3527C10.7635 16.0779 10.4495 15.3226 10.8387 14.8418Z" stroke="#1570EF" stroke-width="2" stroke-linecap="round" stroke-linejoin="round"/>
<path d="M28 14.9113V11.0405C28 8.8538 28 7.76047 27.4612 7.04713C26.9224 6.33381 25.7041 5.98749 23.2676 5.29488C21.6029 4.82168 20.1355 4.25159 18.9631 3.73113C17.3645 3.02155 16.5653 2.66675 16 2.66675C15.4347 2.66675 14.6355 3.02155 13.0369 3.73113C11.8645 4.25159 10.3971 4.82168 8.73244 5.29488C6.29591 5.98749 5.07763 6.33381 4.53881 7.04713C4 7.76047 4 8.8538 4 11.0405V14.9113C4 22.4114 10.7504 26.9114 14.1253 28.6926C14.9348 29.1198 15.3395 29.3334 16 29.3334C16.6605 29.3334 17.0652 29.1198 17.8747 28.6926C21.2496 26.9114 28 22.4114 28 14.9113Z" stroke="#1570EF" stroke-width="2" stroke-linecap="round"/>
</svg>
