<svg width="32" height="32" viewBox="0 0 32 32" fill="none" xmlns="http://www.w3.org/2000/svg">
<path d="M6.66669 21.3332L13.3334 17.3332M18.6667 14.6665L25.3334 10.6665M16 6.6665V13.3332M16 18.6665V25.3332M6.66669 10.6665L13.3334 14.6665M18.6667 17.3332L25.3334 21.3332" stroke="#1570EF" stroke-width="2" stroke-linejoin="round"/>
<path d="M27.3334 11.9998V19.3332M18 27.3332L25.3334 23.3332M6.00002 23.3332L14 27.3332M4.66669 19.9998V11.9998M6.00002 8.6665L14 4.6665M26 8.6665L18 4.6665" stroke="#1570EF" stroke-width="2" stroke-linejoin="round"/>
<path d="M16 6.6665C17.1046 6.6665 18 5.77107 18 4.6665C18 3.56193 17.1046 2.6665 16 2.6665C14.8954 2.6665 14 3.56193 14 4.6665C14 5.77107 14.8954 6.6665 16 6.6665Z" stroke="#1570EF" stroke-width="2" stroke-linejoin="round"/>
<path d="M16 29.3335C17.1046 29.3335 18 28.4381 18 27.3335C18 26.2289 17.1046 25.3335 16 25.3335C14.8954 25.3335 14 26.2289 14 27.3335C14 28.4381 14.8954 29.3335 16 29.3335Z" stroke="#1570EF" stroke-width="2" stroke-linejoin="round"/>
<path d="M4.66669 12C5.77126 12 6.66669 11.1046 6.66669 10C6.66669 8.89543 5.77126 8 4.66669 8C3.56212 8 2.66669 8.89543 2.66669 10C2.66669 11.1046 3.56212 12 4.66669 12Z" stroke="#1570EF" stroke-width="2" stroke-linejoin="round"/>
<path d="M27.3333 12C28.4379 12 29.3333 11.1046 29.3333 10C29.3333 8.89543 28.4379 8 27.3333 8C26.2287 8 25.3333 8.89543 25.3333 10C25.3333 11.1046 26.2287 12 27.3333 12Z" stroke="#1570EF" stroke-width="2" stroke-linejoin="round"/>
<path d="M27.3333 24C28.4379 24 29.3333 23.1046 29.3333 22C29.3333 20.8954 28.4379 20 27.3333 20C26.2287 20 25.3333 20.8954 25.3333 22C25.3333 23.1046 26.2287 24 27.3333 24Z" stroke="#1570EF" stroke-width="2" stroke-linejoin="round"/>
<path d="M4.66669 24C5.77126 24 6.66669 23.1046 6.66669 22C6.66669 20.8954 5.77126 20 4.66669 20C3.56212 20 2.66669 20.8954 2.66669 22C2.66669 23.1046 3.56212 24 4.66669 24Z" stroke="#1570EF" stroke-width="2" stroke-linejoin="round"/>
<path d="M16 13L18.6666 14.5V17.5L16 19L13.3333 17.5V14.5L16 13Z" stroke="#1570EF" stroke-width="2" stroke-linejoin="round"/>
</svg>
