<svg width="32" height="32" viewBox="0 0 32 32" fill="none" xmlns="http://www.w3.org/2000/svg">
<path d="M11.9216 8.46503L14.3399 11.8678C14.8325 12.5611 15.0789 12.9077 15.2061 13.3066C15.3333 13.7057 15.3333 14.1315 15.3333 14.9835V26.6666H7.33333C4.81917 26.6666 3.56209 26.6666 2.78105 25.8815C2 25.0966 2 23.8331 2 21.3062V14.9835C2 14.1315 2 13.7057 2.12721 13.3066C2.25443 12.9077 2.50076 12.5611 2.99343 11.8678L5.41173 8.46503C6.89553 6.37717 7.63743 5.33325 8.66667 5.33325C9.69591 5.33325 10.4378 6.37717 11.9216 8.46503Z" stroke="#1570EF" stroke-width="2" stroke-linecap="round" stroke-linejoin="round"/>
<path d="M11.3333 26.6667V21.3334C11.3333 20.3365 11.3333 19.8381 11.119 19.4667C10.9785 19.2235 10.7766 19.0215 10.5333 18.8811C10.1621 18.6667 9.66359 18.6667 8.66667 18.6667C7.66975 18.6667 7.17128 18.6667 6.8 18.8811C6.55677 19.0215 6.35479 19.2235 6.21436 19.4667C6 19.8381 6 20.3365 6 21.3334V26.6667" stroke="#1570EF" stroke-width="2" stroke-linecap="round" stroke-linejoin="round"/>
<path d="M11.3333 26.6666H24.6666C27.1808 26.6666 28.4378 26.6666 29.2189 25.8855C30 25.1045 30 23.8474 30 21.3333V15.2642C30 14.3086 30 13.8309 29.8406 13.3909C29.6814 12.951 29.3756 12.5839 28.7638 11.8499L24.9325 7.25227C24.1461 6.30861 23.7529 5.83677 23.2154 5.58501C22.6778 5.33325 22.0637 5.33325 20.8353 5.33325H8.66663" stroke="#1570EF" stroke-width="2" stroke-linecap="round" stroke-linejoin="round"/>
<path d="M29.3334 13.3333H15.3334" stroke="#1570EF" stroke-width="2" stroke-linecap="round" stroke-linejoin="round"/>
</svg>
