<svg width="32" height="32" viewBox="0 0 32 32" fill="none" xmlns="http://www.w3.org/2000/svg">
<path d="M18.6667 10.6665H13.3334C10.024 10.6665 9.33337 11.3572 9.33337 14.6665V29.3332H22.6667V14.6665C22.6667 11.3572 21.976 10.6665 18.6667 10.6665Z" stroke="#1570EF" stroke-width="2" stroke-linejoin="round"/>
<path d="M14.6666 16H17.3333M14.6666 20H17.3333M14.6666 24H17.3333" stroke="#1570EF" stroke-width="2" stroke-linecap="round" stroke-linejoin="round"/>
<path d="M28 29.3332V10.914C28 9.27631 28 8.45744 27.6018 7.79939C27.2035 7.14133 26.4863 6.77513 25.0519 6.04272L19.263 3.08699C17.7158 2.29696 17.3334 2.57539 17.3334 4.30481V10.2712" stroke="#1570EF" stroke-width="2" stroke-linecap="round" stroke-linejoin="round"/>
<path d="M4 29.3333V17.3333C4 16.2303 4.23023 16 5.33333 16H9.33333" stroke="#1570EF" stroke-width="2" stroke-linecap="round" stroke-linejoin="round"/>
<path d="M29.3333 29.3335H2.66663" stroke="#1570EF" stroke-width="2" stroke-linecap="round" stroke-linejoin="round"/>
</svg>
