<svg width="32" height="32" viewBox="0 0 32 32" fill="none" xmlns="http://www.w3.org/2000/svg">
<path d="M29.3333 9.00016H25.6148C24.8133 9.00016 24.4125 9.00016 24.0347 8.88574C23.6568 8.77132 23.3233 8.54903 22.6564 8.10443C21.6561 7.43754 20.5149 6.67676 19.948 6.50512C19.3812 6.3335 18.78 6.3335 17.5777 6.3335C15.9428 6.3335 14.8889 6.3335 14.1539 6.63798C13.4188 6.94246 12.8408 7.52052 11.6846 8.67664L10.6672 9.69408C10.4066 9.95463 10.2764 10.0849 10.1959 10.2135C9.8978 10.6903 9.93084 11.3029 10.2785 11.7448C10.3723 11.8641 10.5159 11.9796 10.8029 12.2106C11.864 13.0645 13.3936 12.9793 14.3544 12.0127L16 10.3573H17.3333L25.3333 18.4049C26.0697 19.1457 26.0697 20.3467 25.3333 21.0875C24.5969 21.8283 23.4031 21.8283 22.6667 21.0875L22 20.4168M22 20.4168L18 16.3931M22 20.4168C22.7364 21.1576 22.7364 22.3587 22 23.0993C21.2636 23.8401 20.0697 23.8401 19.3333 23.0993L18 21.7581M18 21.7581C18.7364 22.4988 18.7364 23.6999 18 24.4407C17.2636 25.1813 16.0697 25.1813 15.3333 24.4407L13.3333 22.4287M18 21.7581L15.3333 19.0915M13.3333 22.4287L12.6667 21.7581M13.3333 22.4287C14.0697 23.1695 14.0697 24.3705 13.3333 25.1113C12.597 25.852 11.4031 25.852 10.6667 25.1113L6.90183 21.268C6.12821 20.4783 5.74139 20.0835 5.2458 19.8751C4.75022 19.6668 4.19744 19.6668 3.09192 19.6668H2.66667" stroke="#1570EF" stroke-width="2" stroke-linecap="round" stroke-linejoin="round"/>
<path d="M29.3333 19.6665H26" stroke="#1570EF" stroke-width="2" stroke-linecap="round"/>
<path d="M11.3333 9H2.66667" stroke="#1570EF" stroke-width="2" stroke-linecap="round"/>
</svg>
