<svg width="32" height="32" viewBox="0 0 32 32" fill="none" xmlns="http://www.w3.org/2000/svg">
<path d="M2.66663 16C2.66663 12.2288 2.66663 10.3431 3.8382 9.17157C5.00977 8 6.89539 8 10.6666 8H17.3333C21.1045 8 22.9901 8 24.1617 9.17157C25.3333 10.3431 25.3333 12.2288 25.3333 16C25.3333 19.7712 25.3333 21.6568 24.1617 22.8284C22.9901 24 21.1045 24 17.3333 24H10.6666C6.89539 24 5.00977 24 3.8382 22.8284C2.66663 21.6568 2.66663 19.7712 2.66663 16Z" stroke="#1570EF" stroke-width="2" stroke-linecap="round"/>
<path d="M25.3334 12.6667L26.703 12.895C27.6114 13.0464 28.0655 13.1221 28.4102 13.3423C28.7491 13.5589 29.015 13.8726 29.1728 14.2426C29.3334 14.6187 29.3334 15.0791 29.3334 16.0001C29.3334 16.921 29.3334 17.3814 29.1728 17.7575C29.015 18.1275 28.7491 18.4413 28.4102 18.6578C28.0655 18.8781 27.6114 18.9538 26.703 19.1051L25.3334 19.3334" stroke="#1570EF" stroke-width="2" stroke-linecap="round"/>
<path d="M8 13.3333V18.6666" stroke="#1570EF" stroke-width="2" stroke-linecap="round"/>
<path d="M12 13.3333V18.6666" stroke="#1570EF" stroke-width="2" stroke-linecap="round"/>
<path d="M16 13.3333V18.6666" stroke="#1570EF" stroke-width="2" stroke-linecap="round"/>
<path d="M20 13.3333V18.6666" stroke="#1570EF" stroke-width="2" stroke-linecap="round"/>
</svg>
