<svg width="23" height="23" viewBox="0 0 23 23" fill="none" xmlns="http://www.w3.org/2000/svg">
<path d="M13.1717 0.202662L12.5067 0.109328C10.508 -0.179235 8.46866 0.106236 6.62613 0.932481C4.7836 1.75873 3.21389 3.0917 2.1 4.77599C0.914853 6.38597 0.208355 8.29786 0.0618099 10.2917C-0.0847351 12.2854 0.334647 14.28 1.27167 16.046C1.36757 16.223 1.42726 16.4172 1.4473 16.6176C1.46733 16.8179 1.44729 17.0202 1.38833 17.2127C0.91 18.8577 0.466667 20.5143 0 22.2527L0.583333 22.0777C2.15833 21.6577 3.73333 21.2377 5.30833 20.8527C5.64076 20.7835 5.98631 20.816 6.3 20.946C7.71307 21.6356 9.25727 22.015 10.829 22.0588C12.4008 22.1024 13.9637 21.8095 15.4129 21.1994C16.8622 20.5894 18.1641 19.6764 19.2314 18.5218C20.2988 17.3671 21.1068 15.9976 21.6012 14.505C22.0957 13.0124 22.2651 11.4313 22.0983 9.86781C21.9314 8.30431 21.432 6.79461 20.6335 5.44C19.8352 4.08541 18.7564 2.91725 17.4693 2.01393C16.1824 1.11062 14.717 0.493045 13.1717 0.202662ZM16.1117 15.5093C15.6877 15.889 15.1706 16.1494 14.6132 16.2642C14.0558 16.379 13.4778 16.3439 12.9383 16.1627C10.4937 15.4743 8.37271 13.9404 6.95333 11.8343C6.41117 11.0894 5.97532 10.2728 5.65833 9.40767C5.48666 8.90577 5.45571 8.36638 5.56881 7.8481C5.68193 7.32983 5.93481 6.85242 6.3 6.46766C6.47779 6.24076 6.71978 6.07266 6.99447 5.98526C7.26915 5.89786 7.56379 5.89521 7.84 5.97766C8.07333 6.036 8.23667 6.37433 8.44667 6.63099C8.61742 7.1127 8.81603 7.58406 9.04167 8.04266C9.21247 8.27658 9.28387 8.56859 9.24012 8.85491C9.19637 9.14132 9.0412 9.39869 8.80833 9.57101C8.28333 10.0377 8.365 10.4227 8.73833 10.9477C9.56363 12.1367 10.7025 13.0736 12.0283 13.6543C12.4017 13.8177 12.6817 13.8527 12.9267 13.4677C13.0317 13.316 13.1717 13.1877 13.2883 13.0477C13.965 12.196 13.755 12.2077 14.8283 12.6743C15.1703 12.8181 15.5016 12.9857 15.82 13.176C16.135 13.3627 16.6133 13.561 16.6833 13.841C16.7506 14.1448 16.7329 14.4612 16.6321 14.7556C16.5312 15.0499 16.3512 15.3107 16.1117 15.5093Z" fill="url(#paint0_linear_169_630)"/>
<defs>
<linearGradient id="paint0_linear_169_630" x1="11.0803" y1="-2.63081e-07" x2="11.0803" y2="22.2527" gradientUnits="userSpaceOnUse">
<stop stop-color="#57D163"/>
<stop offset="1" stop-color="#23B33A"/>
</linearGradient>
</defs>
</svg>
